<svg xmlns="http://www.w3.org/2000/svg" viewBox="0 0 64 64" role="img" aria-label="sticky favicon">
  <rect width="64" height="64" rx="16" fill="#f7f5ef"/>
  <path
    d="M39.7 18.4c-2.2-1.5-4.9-2.2-8.3-2.2c-6.9 0-11.6 3.6-11.6 9.1c0 4.2 2.8 7 8.4 8.4l3.6.9c4 .9 5.7 2.1 5.7 4.4c0 2.6-2.2 4.2-5.8 4.2c-3.8 0-6.7-1.3-9.3-4.1l-4.3 4.2c3.2 3.7 7.8 5.7 13.4 5.7c7.7 0 12.9-3.8 12.9-9.6c0-4.7-2.6-7.1-9.2-8.7l-3.5-.8c-3.5-.8-5-1.9-5-4.1c0-2.3 2-3.8 5.1-3.8c2.9 0 5.2.8 7.4 2.6z"
    fill="#7fd62d"
  />
  <path
    d="M16 49h32"
    fill="none"
    stroke="#7b57c8"
    stroke-linecap="round"
    stroke-width="4.5"
  />
</svg>
